<svg id="Layer_1" enable-background="new 0 0 511.448 511.448" height="512" viewBox="0 0 511.448 511.448" width="512" xmlns="http://www.w3.org/2000/svg"><path d="m436.507 74.94c-99.913-99.913-261.64-99.927-361.567 0-99.913 99.913-99.927 261.64 0 361.567 99.913 99.913 261.639 99.927 361.567 0 99.914-99.911 99.93-261.639 0-361.567zm-170.449 287.451c0 17.061-19.335 26.997-33.207 17.088l-69.19-49.421h-35.937c-11.598 0-21-9.402-21-21v-106.667c0-11.598 9.402-21 21-21h35.937l69.19-49.421c13.884-9.918 33.207.043 33.207 17.088zm132.515-89.516c8.2 8.201 8.2 21.498 0 29.698-8.201 8.201-21.498 8.201-29.699 0l-17.15-17.15-17.15 17.15c-8.201 8.201-21.498 8.201-29.699 0-8.2-8.201-8.2-21.498 0-29.698l17.151-17.151-17.151-17.151c-8.2-8.201-8.2-21.498 0-29.698 8.201-8.201 21.498-8.201 29.699 0l17.15 17.15 17.15-17.15c8.201-8.201 21.498-8.201 29.699 0 8.2 8.201 8.2 21.498 0 29.698l-17.151 17.151z"/></svg>