<svg id="Layer_1" enable-background="new 0 0 511.449 511.449" height="512" viewBox="0 0 511.449 511.449" width="512" xmlns="http://www.w3.org/2000/svg"><path d="m436.508 74.941c-99.913-99.913-261.639-99.927-361.566 0-99.914 99.912-99.93 261.64 0 361.567 99.913 99.913 261.639 99.927 361.566 0 99.914-99.912 99.929-261.64 0-361.567zm-170.45 287.45c0 17.061-19.334 26.997-33.206 17.088l-69.189-49.421h-35.938c-11.598 0-21-9.402-21-21v-106.667c0-11.598 9.402-21 21-21h35.938l69.189-49.421c13.884-9.918 33.206.042 33.206 17.088zm39.339-25.327c-18.54 0-28.119-22.58-14.849-35.85 25.144-25.145 25.142-65.837 0-90.98-8.201-8.201-8.202-21.498-.001-29.699s21.498-8.201 29.699 0c41.561 41.56 41.555 108.824 0 150.378-4.1 4.101-9.475 6.151-14.849 6.151zm60.105 39.104c-8.201 8.201-21.499 8.201-29.699 0s-8.2-21.498 0-29.698c50.037-50.038 50.037-131.454 0-181.491-8.2-8.201-8.2-21.498 0-29.698 8.201-8.201 21.498-8.201 29.699 0 66.413 66.413 66.413 174.474 0 240.887z"/></svg>